<svg xmlns="http://www.w3.org/2000/svg" xmlns:xlink="http://www.w3.org/1999/xlink" version="1.1" x="0px" y="0px" viewBox="0 0 5 6.25" enable-background="new 0 0 5 5" xml:space="preserve"><g><path fill="#000000" d="M4.464,2.865C4.345,2.89,4.2,2.84,4.08,2.872C4.092,2.854,4.104,2.84,4.117,2.826   c0.017-0.02-0.006-0.053-0.024-0.04C4.026,2.832,3.929,2.841,3.871,2.91c0.005-0.023,0.012-0.046,0.022-0.059   c0.016-0.02-0.002-0.055-0.022-0.049c-0.019,0.003-0.036,0-0.054,0.008C3.797,2.818,3.775,2.832,3.757,2.846   c-0.039,0.03-0.074,0.057-0.104,0.097C3.656,2.93,3.661,2.917,3.668,2.906c0.01-0.02-0.009-0.047-0.025-0.042   C3.599,2.876,3.558,2.881,3.519,2.913C3.487,2.941,3.463,2.977,3.446,3.019l0,0C3.444,3.002,3.435,2.984,3.435,2.968   C3.437,2.94,3.407,2.935,3.397,2.952C3.396,2.955,3.377,2.961,3.376,2.961C3.367,2.966,3.36,2.972,3.353,2.977   C3.337,2.984,3.32,2.998,3.307,3.012C3.29,3.025,3.275,3.043,3.26,3.059C3.251,3.05,3.236,3.048,3.229,3.062   C3.216,3.066,3.206,3.068,3.192,3.075c-0.01,0.005-0.017,0.006-0.025,0.01c-0.016,0.002-0.028,0.011-0.04,0.021   c-0.014,0.01-0.023,0.024-0.03,0.043C3.09,3.145,3.083,3.144,3.073,3.147C3.068,3.146,3.062,3.145,3.055,3.144   C3.06,3.145,2.996,3.147,3.039,3.146C3.015,3.147,2.994,3.154,2.978,3.178C2.971,3.189,2.965,3.201,2.961,3.213   C2.958,3.212,2.954,3.211,2.952,3.208c0,0,0-0.002,0.001-0.003C2.964,3.189,2.966,3.17,2.966,3.15   c0.007-0.013,0.012-0.028,0.01-0.046c0-0.011-0.001-0.019-0.003-0.029C2.987,3.079,3,3.08,3.013,3.079   C3.043,3.074,3.06,3.055,3.07,3.027c-0.02,0.047,0.009-0.021,0.008-0.015C3.08,3.004,3.081,2.996,3.083,2.988   C3.09,2.982,3.092,2.972,3.09,2.961C3.11,2.965,3.129,2.964,3.145,2.954c0.014-0.01,0.028-0.018,0.037-0.032   c0.005-0.009,0.011-0.018,0.018-0.025c0.013-0.012,0.019-0.019,0.028-0.032c0.017,0.001,0.021-0.017,0.017-0.032   c0.021-0.008,0.044-0.015,0.064-0.025C3.326,2.8,3.345,2.79,3.36,2.776c0.007-0.006,0.016-0.012,0.023-0.018   C3.386,2.758,3.397,2.74,3.401,2.74c0.022,0,0.029-0.037,0-0.054C3.385,2.679,3.372,2.655,3.358,2.645   c-0.002,0-0.002,0-0.002-0.002c0.048,0.01,0.093,0.002,0.132-0.018c0.046-0.023,0.068-0.067,0.098-0.109   C3.598,2.5,3.577,2.462,3.554,2.461c-0.014,0-0.027-0.004-0.042-0.006c0.052-0.01,0.093-0.033,0.137-0.058   c0.022-0.014,0.042-0.028,0.06-0.047c0.016-0.018,0.018-0.038,0.03-0.056c0.012-0.021-0.015-0.062-0.04-0.058   c-0.016,0.004-0.042-0.002-0.066-0.01c0.09-0.022,0.138-0.13,0.209-0.178c0.019-0.013-0.005-0.06-0.027-0.052   c-0.02,0.008-0.04,0.011-0.062,0.015C3.832,1.894,3.841,1.7,3.913,1.58c0.009-0.017-0.004-0.039-0.021-0.048   c-0.01-0.017-0.03-0.027-0.041-0.014C3.767,1.626,3.61,1.677,3.53,1.793C3.528,1.768,3.528,1.742,3.529,1.719   C3.53,1.69,3.488,1.671,3.481,1.694C3.456,1.788,3.379,1.866,3.379,1.977C3.367,1.948,3.356,1.922,3.356,1.9   c-0.001-0.03-0.04-0.053-0.054-0.035c-0.013,0.019-0.03,0.026-0.04,0.047c-0.011,0.024-0.019,0.05-0.026,0.081   C3.225,2.05,3.215,2.103,3.217,2.164c-0.005-0.018-0.011-0.032-0.013-0.05c-0.005-0.026-0.04-0.042-0.05-0.024   C3.125,2.133,3.092,2.167,3.083,2.226C3.075,2.276,3.078,2.33,3.095,2.385H3.093C3.08,2.367,3.062,2.357,3.05,2.341   C3.03,2.31,3.003,2.325,3.006,2.351c0.001,0.006-0.012,0.022-0.012,0.026c-0.003,0.009-0.005,0.019-0.01,0.03   C2.978,2.427,2.973,2.452,2.97,2.475C2.966,2.501,2.966,2.529,2.964,2.557C2.949,2.553,2.936,2.562,2.94,2.581   C2.931,2.594,2.927,2.604,2.918,2.62C2.917,2.624,2.916,2.625,2.915,2.627C2.9,2.614,2.885,2.602,2.87,2.588   C2.868,2.587,2.865,2.584,2.863,2.581c0.07-0.066,0.124-0.173,0.134-0.285c0.006-0.048-0.024-0.09-0.059-0.084   c-0.003,0-0.003,0-0.004,0c-0.006-0.002-0.011-0.002-0.016,0c-0.004,0-0.012,0.001-0.016,0.001c0.046-0.06,0.08-0.13,0.091-0.22   c0.009-0.065-0.033-0.104-0.072-0.098C2.905,1.893,2.889,1.897,2.874,1.91C2.841,1.938,2.801,1.946,2.759,1.952   c0.025-0.023,0.045-0.054,0.058-0.094c0.003-0.008,0.006-0.017,0.01-0.024C2.828,1.83,2.829,1.827,2.832,1.821   C2.85,1.78,2.856,1.767,2.852,1.775c0.005-0.008,0.007-0.015,0.012-0.023c0.014-0.031,0.03-0.061,0.042-0.094   c0.037-0.116,0.047-0.214,0.019-0.335C2.915,1.287,2.888,1.271,2.863,1.277C2.843,1.272,2.821,1.282,2.808,1.303   C2.805,1.307,2.804,1.311,2.802,1.313c0.008-0.059,0.01-0.115,0.014-0.17c0.004-0.063,0.008-0.13-0.001-0.191   C2.804,0.885,2.783,0.82,2.774,0.754C2.771,0.729,2.753,0.719,2.737,0.726c-0.013-0.007-0.03,0.002-0.032,0.027   C2.7,0.802,2.682,0.852,2.658,0.901C2.644,0.85,2.632,0.801,2.623,0.756C2.616,0.725,2.611,0.694,2.605,0.663   c-0.011-0.14-0.024-0.274-0.066-0.407C2.533,0.235,2.521,0.229,2.509,0.23c-0.003,0-0.006,0-0.01,0c-0.002,0-0.006,0-0.008,0   C2.479,0.229,2.467,0.235,2.46,0.256C2.42,0.389,2.403,0.523,2.395,0.663C2.389,0.694,2.383,0.725,2.378,0.756   C2.368,0.801,2.354,0.85,2.341,0.901c-0.023-0.05-0.041-0.1-0.046-0.148c-0.002-0.025-0.02-0.034-0.033-0.027   C2.247,0.719,2.229,0.729,2.226,0.754C2.217,0.82,2.196,0.885,2.187,0.952C2.176,1.014,2.18,1.08,2.185,1.144   c0.002,0.055,0.006,0.111,0.014,0.17C2.196,1.311,2.193,1.307,2.192,1.303c-0.014-0.021-0.036-0.03-0.057-0.025   c-0.023-0.006-0.052,0.01-0.059,0.046c-0.03,0.121-0.021,0.219,0.018,0.335c0.01,0.033,0.026,0.062,0.043,0.094   C2.14,1.761,2.145,1.768,2.148,1.775C2.143,1.767,2.149,1.78,2.168,1.821C2.17,1.827,2.173,1.83,2.173,1.834   C2.178,1.842,2.18,1.851,2.184,1.858c0.013,0.04,0.033,0.07,0.057,0.094C2.199,1.946,2.158,1.938,2.126,1.91   C2.11,1.897,2.094,1.893,2.079,1.896C2.037,1.889,1.998,1.928,2.005,1.993c0.012,0.09,0.047,0.16,0.092,0.22   c-0.006,0-0.011-0.001-0.018-0.001c-0.005-0.002-0.009-0.002-0.014,0c-0.001,0-0.003,0-0.003,0   C2.025,2.206,1.998,2.248,2.002,2.296c0.012,0.112,0.064,0.219,0.136,0.285C2.136,2.584,2.132,2.587,2.131,2.588   c-0.017,0.014-0.03,0.026-0.047,0.039c0-0.002-0.002-0.003-0.002-0.007C2.073,2.604,2.068,2.594,2.06,2.581   c0.003-0.019-0.01-0.028-0.023-0.024C2.035,2.529,2.032,2.501,2.03,2.475c-0.002-0.022-0.01-0.048-0.016-0.067   c-0.003-0.012-0.007-0.021-0.01-0.03c0-0.004-0.012-0.021-0.012-0.026C1.998,2.325,1.97,2.31,1.95,2.341   C1.939,2.357,1.92,2.367,1.906,2.385c0,0,0,0-0.001,0c0.017-0.055,0.02-0.108,0.012-0.159C1.906,2.167,1.874,2.133,1.846,2.09   c-0.01-0.018-0.044-0.002-0.05,0.024c-0.003,0.018-0.008,0.032-0.013,0.05c0.002-0.062-0.01-0.114-0.021-0.171   C1.756,1.962,1.748,1.937,1.736,1.912c-0.01-0.021-0.027-0.028-0.04-0.047C1.683,1.848,1.643,1.87,1.643,1.9   c0,0.021-0.009,0.048-0.021,0.076c-0.002-0.11-0.078-0.188-0.104-0.282C1.511,1.671,1.468,1.69,1.471,1.719   c0.002,0.023,0.001,0.049-0.002,0.074c-0.08-0.116-0.236-0.167-0.32-0.274C1.138,1.505,1.117,1.516,1.106,1.532   C1.091,1.541,1.078,1.563,1.088,1.58C1.159,1.7,1.169,1.894,1.247,2.013c-0.02-0.004-0.04-0.007-0.061-0.015   C1.163,1.99,1.139,2.037,1.157,2.05c0.072,0.048,0.119,0.155,0.21,0.178c-0.025,0.008-0.049,0.014-0.066,0.01   C1.276,2.233,1.249,2.273,1.263,2.295c0.012,0.018,0.014,0.038,0.028,0.056C1.31,2.369,1.33,2.384,1.352,2.397   c0.044,0.024,0.086,0.048,0.135,0.058C1.473,2.457,1.459,2.461,1.444,2.461C1.421,2.462,1.402,2.5,1.414,2.516   c0.03,0.042,0.052,0.086,0.097,0.109c0.04,0.02,0.084,0.027,0.132,0.018c0,0.002,0,0.002,0,0.002   C1.627,2.655,1.615,2.679,1.599,2.687c-0.029,0.017-0.021,0.054,0,0.054c0.004,0,0.016,0.018,0.017,0.019   C1.624,2.765,1.631,2.771,1.64,2.776C1.654,2.79,1.673,2.8,1.692,2.807c0.021,0.011,0.043,0.018,0.064,0.025   C1.75,2.848,1.756,2.865,1.771,2.864c0.009,0.014,0.017,0.021,0.03,0.032c0.007,0.008,0.012,0.017,0.017,0.025   c0.009,0.015,0.022,0.022,0.037,0.032c0.017,0.01,0.035,0.011,0.054,0.007C1.908,2.972,1.911,2.982,1.917,2.988   c0.001,0.008,0.004,0.016,0.005,0.024C1.921,3.006,1.948,3.074,1.93,3.027C1.94,3.055,1.956,3.074,1.987,3.079   C2,3.08,2.014,3.079,2.025,3.075c0,0.011-0.001,0.019-0.002,0.029c0,0.018,0.002,0.033,0.009,0.046c0,0.02,0.004,0.039,0.015,0.055   c0,0.001,0.001,0.003,0.002,0.003C2.044,3.211,2.042,3.212,2.04,3.213C2.035,3.201,2.03,3.189,2.023,3.178   C2.007,3.154,1.984,3.147,1.96,3.146c0.042,0.001-0.021-0.002-0.015-0.003C1.939,3.145,1.933,3.146,1.925,3.147   C1.918,3.144,1.909,3.145,1.902,3.148C1.897,3.13,1.887,3.115,1.874,3.105C1.86,3.096,1.849,3.087,1.833,3.085   C1.825,3.081,1.815,3.08,1.809,3.075C1.792,3.068,1.784,3.066,1.771,3.062C1.765,3.048,1.749,3.05,1.74,3.059   C1.725,3.043,1.709,3.025,1.693,3.012C1.679,2.998,1.661,2.984,1.647,2.977C1.64,2.972,1.631,2.966,1.624,2.961   c-0.002,0-0.021-0.006-0.021-0.009C1.592,2.935,1.563,2.94,1.563,2.968c0.001,0.017-0.009,0.034-0.009,0.051l0,0   C1.538,2.977,1.513,2.941,1.479,2.913C1.442,2.881,1.4,2.876,1.355,2.864C1.34,2.859,1.321,2.887,1.331,2.906   C1.337,2.917,1.342,2.93,1.347,2.942c-0.03-0.04-0.065-0.066-0.104-0.097c-0.02-0.014-0.039-0.027-0.06-0.035   C1.165,2.803,1.148,2.806,1.13,2.803C1.108,2.797,1.091,2.832,1.106,2.852C1.117,2.864,1.124,2.887,1.13,2.91   C1.071,2.841,0.974,2.832,0.905,2.786c-0.018-0.013-0.039,0.021-0.023,0.04C0.896,2.84,0.908,2.854,0.92,2.872   C0.798,2.84,0.656,2.89,0.537,2.865c-0.017-0.003-0.026,0.016-0.026,0.03c-0.007,0.013-0.004,0.034,0.01,0.04   C0.638,2.973,0.744,3.09,0.863,3.123C0.848,3.133,0.83,3.141,0.812,3.146C0.791,3.153,0.796,3.195,0.817,3.194   c0.079-0.007,0.17,0.035,0.249,0.002c-0.017,0.02-0.03,0.035-0.044,0.041C1,3.247,1.001,3.286,1.021,3.292   c0.019,0.006,0.031,0.02,0.051,0.021c0.022,0.001,0.046,0.001,0.069-0.002c0.046-0.008,0.088-0.014,0.132-0.033   c-0.01,0.008-0.018,0.019-0.029,0.025c-0.017,0.012-0.012,0.045,0.005,0.05c0.044,0.01,0.084,0.027,0.13,0.02   c0.04-0.01,0.077-0.027,0.11-0.058l0,0C1.482,3.332,1.484,3.352,1.478,3.366C1.465,3.392,1.487,3.41,1.504,3.398   c0.004-0.001,0.022,0.004,0.023,0.004c0.008,0,0.018,0,0.027-0.001c0.016,0,0.037-0.004,0.056-0.008   C1.63,3.39,1.65,3.382,1.671,3.375c0.004,0.013,0.017,0.021,0.028,0.013c0.014,0.003,0.023,0.004,0.039,0.006   c0.009,0.002,0.017,0.004,0.026,0.008c0.014,0.003,0.028,0.002,0.044,0c0.017-0.003,0.03-0.011,0.044-0.023   c0.005,0.007,0.012,0.012,0.02,0.013c0.006,0.005,0.011,0.008,0.016,0.013C1.883,3.401,1.94,3.429,1.902,3.409   c0.022,0.012,0.044,0.015,0.069,0.002C1.982,3.405,1.992,3.397,2,3.39c0.005,0.007,0.008,0.013,0.014,0.02   c0.005,0.008,0.012,0.014,0.019,0.019c0,0-0.001,0.001-0.002,0.001C2.019,3.432,2.012,3.433,2.004,3.438   C1.993,3.433,1.984,3.439,1.983,3.45C1.968,3.446,1.952,3.445,1.937,3.444c-0.014,0-0.027,0-0.042,0.002   C1.888,3.449,1.883,3.449,1.876,3.45c-0.002,0-0.014,0.006-0.016,0.003C1.846,3.45,1.832,3.465,1.844,3.479   c0.007,0.008,0.008,0.021,0.014,0.032l0,0C1.83,3.497,1.802,3.489,1.771,3.487c-0.035,0-0.061,0.018-0.093,0.03   c-0.01,0.005-0.01,0.028,0.003,0.034C1.689,3.554,1.698,3.56,1.706,3.563C1.672,3.556,1.641,3.559,1.605,3.56   c-0.017,0-0.034,0.002-0.05,0.007C1.54,3.57,1.533,3.581,1.521,3.587C1.507,3.591,1.51,3.618,1.526,3.623   c0.012,0.001,0.025,0.009,0.037,0.021C1.503,3.632,1.441,3.672,1.383,3.678c-0.016,0.001-0.014,0.029,0.002,0.03   c0.013,0.003,0.027,0.006,0.041,0.009C1.342,3.755,1.276,3.845,1.197,3.885C1.188,3.89,1.189,3.903,1.195,3.912   C1.197,3.923,1.207,3.933,1.216,3.93C1.3,3.896,1.411,3.911,1.495,3.876C1.489,3.887,1.482,3.899,1.473,3.911   c-0.01,0.013,0.011,0.032,0.022,0.021c0.043-0.037,0.114-0.056,0.147-0.109C1.641,3.841,1.64,3.855,1.634,3.865   C1.624,3.879,1.641,3.9,1.654,3.896C1.669,3.89,1.681,3.891,1.693,3.883c0.015-0.008,0.026-0.02,0.039-0.031   C1.757,3.827,1.78,3.804,1.797,3.774C1.796,3.782,1.795,3.793,1.791,3.801C1.785,3.815,1.802,3.83,1.813,3.824   c0.03-0.014,0.061-0.021,0.084-0.048c0.021-0.021,0.035-0.049,0.042-0.078l0,0C1.941,3.71,1.951,3.72,1.953,3.729   c0.003,0.02,0.023,0.02,0.029,0.005c0.001-0.001,0.014-0.007,0.016-0.008c0.004-0.004,0.009-0.008,0.014-0.013   c0.011-0.007,0.021-0.018,0.03-0.028C2.053,3.675,2.061,3.661,2.07,3.648c0.007,0.005,0.019,0.003,0.023-0.006   c0.008-0.005,0.014-0.007,0.024-0.014c0.004-0.005,0.01-0.006,0.018-0.009c0.01-0.005,0.019-0.012,0.025-0.02   c0.009-0.01,0.015-0.02,0.018-0.033C2.185,3.57,2.19,3.569,2.196,3.566c0.004,0,0.009,0,0.014,0c-0.004,0,0.042-0.011,0.011-0.003   c0.018-0.004,0.031-0.012,0.041-0.03c0.002-0.004,0.004-0.008,0.004-0.012C2.273,3.52,2.277,3.518,2.283,3.513   c0.001,0,0.001,0,0.001,0c0.008,0.001,0.014,0.001,0.02,0.001C2.301,3.516,2.3,3.519,2.299,3.521   C2.296,3.524,2.296,3.527,2.294,3.529c-0.005,0.005-0.007,0.008-0.01,0.012C2.278,3.542,2.277,3.548,2.28,3.553   C2.273,3.556,2.266,3.561,2.259,3.565C2.254,3.569,2.247,3.573,2.242,3.579C2.24,3.582,2.238,3.583,2.235,3.587   c-0.001,0-0.004,0.007-0.006,0.007C2.223,3.595,2.222,3.606,2.231,3.608C2.236,3.609,2.24,3.615,2.246,3.617l0,0   C2.231,3.62,2.217,3.625,2.203,3.634c-0.014,0.011-0.02,0.027-0.029,0.041C2.17,3.68,2.178,3.69,2.186,3.689   c0.004-0.003,0.008-0.003,0.014-0.003C2.184,3.693,2.17,3.704,2.156,3.715C2.149,3.721,2.143,3.727,2.138,3.733   s-0.006,0.013-0.01,0.02C2.125,3.761,2.134,3.77,2.143,3.766c0.006-0.003,0.014-0.003,0.023-0.003   c-0.03,0.017-0.045,0.051-0.065,0.071C2.094,3.839,2.103,3.851,2.109,3.847s0.013-0.006,0.021-0.01   c-0.024,0.041-0.023,0.1-0.045,0.142C2.084,3.984,2.089,3.989,2.094,3.989c0.003,0.004,0.011,0.006,0.014,0.002   c0.025-0.04,0.076-0.067,0.101-0.109c0,0.008,0.002,0.015,0.002,0.021c0,0.009,0.014,0.01,0.016,0.003   c0.006-0.029,0.03-0.059,0.028-0.091c0.004,0.007,0.008,0.014,0.008,0.02c0.002,0.01,0.015,0.013,0.02,0.006   C2.284,3.835,2.289,3.83,2.293,3.823c0.003-0.008,0.006-0.017,0.006-0.024C2.302,3.78,2.305,3.763,2.304,3.746   c0.001,0.005,0.003,0.009,0.004,0.013c0.003,0.009,0.015,0.009,0.017,0.003c0.01-0.015,0.019-0.028,0.021-0.047   c0.002-0.014,0-0.029-0.008-0.044l0,0C2.343,3.675,2.35,3.676,2.354,3.68c0.007,0.007,0.016,0,0.014-0.007   c0-0.001,0.003-0.008,0.003-0.008c0.001-0.004,0.002-0.008,0.002-0.01c0.003-0.007,0.005-0.014,0.005-0.021   c0-0.009,0-0.017,0-0.025c0.005,0,0.01-0.005,0.007-0.008c0.003-0.006,0.005-0.01,0.007-0.014c0-0.004,0.003-0.006,0.005-0.01   C2.399,3.572,2.4,3.566,2.401,3.561s0-0.013-0.002-0.019C2.401,3.541,2.403,3.54,2.405,3.537C2.406,3.534,2.408,3.533,2.41,3.531   C2.409,3.533,2.425,3.514,2.413,3.527C2.415,3.524,2.418,3.522,2.419,3.52C2.416,3.553,2.415,3.587,2.413,3.617   C2.407,3.745,2.405,3.875,2.402,4.002C2.399,4.13,2.399,4.26,2.399,4.387C2.396,4.5,2.37,4.645,2.443,4.738   c0.023,0.03,0.074,0.048,0.103,0.012c0.076-0.098,0.056-0.216,0.055-0.333C2.6,4.288,2.6,4.159,2.598,4.032   c-0.003-0.13-0.004-0.258-0.012-0.387C2.585,3.606,2.583,3.562,2.581,3.52c0,0.003,0.002,0.005,0.005,0.008   C2.574,3.514,2.59,3.533,2.588,3.531C2.59,3.533,2.593,3.534,2.595,3.537C2.596,3.54,2.599,3.541,2.602,3.542   C2.599,3.548,2.598,3.555,2.599,3.561S2.6,3.572,2.604,3.577c0.002,0.004,0.003,0.006,0.006,0.01   C2.61,3.591,2.611,3.595,2.615,3.601C2.613,3.604,2.616,3.608,2.622,3.608c0,0.009,0,0.017,0.001,0.025   c0,0.008,0,0.015,0.002,0.021c0.002,0.002,0.003,0.006,0.003,0.01c0,0,0.004,0.007,0.004,0.008C2.63,3.68,2.64,3.687,2.646,3.68   C2.649,3.676,2.655,3.675,2.66,3.671l0,0c-0.006,0.015-0.007,0.03-0.007,0.044c0.002,0.019,0.013,0.032,0.021,0.047   c0.003,0.006,0.014,0.006,0.017-0.003c0.002-0.004,0.004-0.008,0.006-0.013c-0.002,0.017,0,0.034,0.003,0.053   c0.002,0.008,0.005,0.017,0.007,0.024C2.709,3.83,2.715,3.835,2.719,3.841c0.005,0.007,0.019,0.004,0.019-0.006   c0.001-0.006,0.005-0.013,0.01-0.02C2.744,3.848,2.768,3.877,2.774,3.906c0.003,0.007,0.017,0.006,0.017-0.003   c0-0.007,0-0.014,0.001-0.021c0.024,0.042,0.075,0.069,0.1,0.109c0.004,0.004,0.012,0.002,0.015-0.002   c0.005,0,0.01-0.005,0.009-0.011C2.894,3.937,2.894,3.878,2.87,3.837c0.007,0.004,0.015,0.006,0.021,0.01   C2.897,3.851,2.906,3.839,2.9,3.834C2.877,3.813,2.863,3.779,2.835,3.763c0.009,0,0.017,0,0.021,0.003   C2.865,3.77,2.875,3.761,2.87,3.753C2.868,3.746,2.868,3.74,2.863,3.733c-0.007-0.007-0.013-0.013-0.02-0.019   C2.829,3.704,2.816,3.693,2.801,3.687c0.004,0,0.009,0,0.014,0.003C2.821,3.69,2.828,3.68,2.826,3.675   c-0.01-0.014-0.016-0.03-0.03-0.041C2.784,3.625,2.77,3.62,2.754,3.617l0,0c0.005-0.002,0.009-0.008,0.014-0.009   c0.011-0.002,0.01-0.014,0.002-0.015c-0.002,0-0.004-0.007-0.006-0.007C2.763,3.583,2.76,3.582,2.757,3.579   c-0.004-0.006-0.01-0.01-0.018-0.014c-0.006-0.005-0.013-0.01-0.021-0.013c0.003-0.005,0.002-0.011-0.004-0.012   C2.712,3.537,2.709,3.534,2.707,3.529C2.705,3.527,2.702,3.524,2.701,3.521S2.697,3.516,2.695,3.514c0.007,0,0.013,0,0.019-0.001   c0.001,0,0.001,0,0.003,0c0.004,0.005,0.01,0.007,0.016,0.009c0.001,0.004,0.003,0.008,0.005,0.012   c0.01,0.019,0.023,0.026,0.042,0.03C2.749,3.556,2.793,3.566,2.79,3.566c0.005,0,0.009,0,0.015,0   C2.81,3.569,2.815,3.57,2.821,3.567c0.002,0.014,0.007,0.023,0.017,0.033c0.008,0.008,0.016,0.015,0.027,0.02   C2.87,3.623,2.877,3.624,2.882,3.629c0.01,0.007,0.017,0.009,0.025,0.014C2.91,3.651,2.922,3.653,2.929,3.648   c0.01,0.013,0.019,0.026,0.029,0.037c0.008,0.011,0.02,0.021,0.029,0.028c0.006,0.005,0.01,0.009,0.016,0.013   c0,0.001,0.015,0.007,0.015,0.008c0.005,0.015,0.026,0.015,0.029-0.005c0.001-0.01,0.01-0.02,0.013-0.031l0,0   c0.007,0.029,0.021,0.057,0.042,0.078c0.023,0.026,0.054,0.034,0.084,0.048C3.197,3.83,3.213,3.815,3.209,3.801   C3.206,3.793,3.204,3.782,3.202,3.774c0.017,0.029,0.039,0.053,0.064,0.077c0.012,0.012,0.026,0.023,0.04,0.031   C3.318,3.891,3.331,3.89,3.344,3.896C3.358,3.9,3.376,3.879,3.367,3.865C3.36,3.855,3.358,3.841,3.356,3.823   c0.034,0.054,0.104,0.072,0.148,0.109c0.012,0.011,0.031-0.009,0.021-0.021C3.519,3.899,3.512,3.887,3.505,3.876   C3.589,3.911,3.698,3.896,3.782,3.93c0.012,0.003,0.021-0.007,0.021-0.018c0.007-0.009,0.01-0.022-0.002-0.027   c-0.08-0.04-0.146-0.13-0.228-0.168c0.013-0.003,0.026-0.006,0.04-0.009c0.017-0.001,0.017-0.029,0.003-0.03   C3.559,3.672,3.498,3.632,3.435,3.644c0.014-0.012,0.026-0.02,0.038-0.021c0.016-0.005,0.021-0.032,0.007-0.036   C3.467,3.581,3.458,3.57,3.444,3.566C3.428,3.562,3.412,3.56,3.395,3.56c-0.034-0.001-0.066-0.004-0.1,0.004   c0.007-0.004,0.014-0.01,0.023-0.012C3.332,3.546,3.332,3.522,3.32,3.518c-0.031-0.013-0.058-0.03-0.093-0.03   c-0.03,0.002-0.059,0.01-0.087,0.024h0.002c0.006-0.011,0.006-0.024,0.013-0.032C3.169,3.465,3.154,3.45,3.139,3.453   C3.138,3.456,3.125,3.45,3.123,3.45C3.117,3.449,3.11,3.449,3.104,3.446C3.091,3.444,3.075,3.444,3.062,3.444   C3.048,3.445,3.031,3.446,3.015,3.45c0-0.011-0.009-0.018-0.019-0.013C2.987,3.433,2.98,3.432,2.97,3.429   c-0.001,0-0.003-0.001-0.004-0.001C2.973,3.423,2.98,3.417,2.987,3.409c0.004-0.007,0.009-0.013,0.012-0.02   c0.009,0.008,0.019,0.016,0.029,0.021c0.024,0.013,0.047,0.01,0.068-0.002C3.06,3.429,3.115,3.401,3.11,3.403   c0.007-0.005,0.012-0.008,0.017-0.013c0.01-0.001,0.016-0.006,0.021-0.013C3.16,3.391,3.176,3.398,3.192,3.401   c0.014,0.002,0.028,0.003,0.044,0c0.008-0.004,0.017-0.006,0.026-0.008C3.278,3.392,3.287,3.391,3.3,3.388   c0.012,0.009,0.025,0,0.03-0.013C3.35,3.382,3.37,3.39,3.391,3.394c0.018,0.004,0.037,0.008,0.056,0.008   c0.009,0.001,0.017,0.001,0.026,0.001c0.002,0,0.02-0.005,0.023-0.004C3.512,3.41,3.535,3.392,3.522,3.366   C3.516,3.352,3.518,3.332,3.512,3.315l0,0c0.032,0.03,0.068,0.048,0.107,0.058c0.048,0.008,0.087-0.01,0.131-0.02   c0.017-0.005,0.023-0.038,0.005-0.05c-0.01-0.007-0.019-0.018-0.028-0.025c0.042,0.02,0.085,0.025,0.133,0.033   c0.022,0.003,0.045,0.003,0.068,0.002c0.02-0.002,0.032-0.016,0.051-0.021C4,3.286,4,3.247,3.979,3.237   c-0.015-0.006-0.03-0.021-0.044-0.041c0.079,0.033,0.17-0.009,0.248-0.002C4.203,3.195,4.21,3.153,4.188,3.146   C4.17,3.141,4.152,3.133,4.135,3.123c0.12-0.033,0.229-0.15,0.344-0.188c0.016-0.006,0.017-0.027,0.01-0.04   C4.489,2.881,4.479,2.862,4.464,2.865z"/></g><text x="0" y="20" fill="#000000" font-size="5px" font-weight="bold" font-family="'Helvetica Neue', Helvetica, Arial-Unicode, Arial, Sans-serif">Created by Alice Noir</text><text x="0" y="25" fill="#000000" font-size="5px" font-weight="bold" font-family="'Helvetica Neue', Helvetica, Arial-Unicode, Arial, Sans-serif">from the Noun Project</text></svg>